<svg xmlns="http://www.w3.org/2000/svg" xmlns:cc="http://web.resource.org/cc/" xmlns:svg="http://www.w3.org/2000/svg" xmlns:xlink="http://www.w3.org/1999/xlink" id="svg2" width="744.094" height="1052.362"><defs id="defs4"><linearGradient id="linearGradient2925"><stop style="stop-color:white;stop-opacity:1" id="stop2927" offset="0"/><stop style="stop-color:#c9c9c9;stop-opacity:1" id="stop2929" offset="1"/></linearGradient><linearGradient id="linearGradient2931" x1="382.357" x2="457.643" y1="530.934" y2="409.005" gradientUnits="userSpaceOnUse" xlink:href="#linearGradient2925"/><linearGradient id="linearGradient2952" x1="436.441" x2="439.564" y1="428.995" y2="424.935" gradientUnits="userSpaceOnUse" xlink:href="#linearGradient2925"/><linearGradient id="linearGradient3334" x1="382.357" x2="457.643" y1="530.934" y2="409.005" gradientUnits="userSpaceOnUse" xlink:href="#linearGradient2925"/><linearGradient id="linearGradient3336" x1="436.441" x2="439.564" y1="428.995" y2="424.935" gradientUnits="userSpaceOnUse" xlink:href="#linearGradient2925"/></defs><metadata id="metadata7"/><g id="layer1"><g id="g3330" transform="matrix(1.327159,0,0,1.242616,-143.7218,-125.8299)"><path id="rect2038" d="M 351.42856,409.50504 L 422.24377,409.50504 L 457.14283,440.20974 L 457.14283,549.50504 L 351.42856,549.50504 L 351.42856,409.50504 z" style="fill:url(#linearGradient3334);fill-opacity:1;stroke:#000;stroke-width:1;stroke-linecap:round;stroke-linejoin:round;stroke-miterlimit:79.84031677;stroke-opacity:1"/><path id="path2934" d="M 422.18729,409.55866 C 425.02961,419.4444 428.19433,429.33013 428.68052,439.21586 C 441.30286,437.03973 448.85669,438.79963 456.94088,440.31184 L 422.18729,409.55866 z" style="fill:url(#linearGradient3336);fill-opacity:1;fill-rule:evenodd;stroke:#000;stroke-width:1px;stroke-linecap:butt;stroke-linejoin:round;stroke-opacity:1"/></g><rect style="fill:none;fill-opacity:1;stroke:none;stroke-width:1;stroke-linecap:round;stroke-linejoin:round;stroke-miterlimit:79.84031677;stroke-dasharray:none;stroke-opacity:1" id="rect2936" width="181.817" height="181.817" x="290.135" y="376.418"/><image id="image3327" width="138.938" height="138.938" x="292.175" y="386.887" xlink:href="eye_cropped.png"/></g></svg>