<svg xmlns="http://www.w3.org/2000/svg" xmlns:svg="http://www.w3.org/2000/svg" xmlns:xlink="http://www.w3.org/1999/xlink" id="svg11300" width="48" height="48" version="1.0"><defs id="defs3"><linearGradient id="linearGradient9952"><stop style="stop-color:#fff;stop-opacity:1" id="stop9954" offset="0"/><stop style="stop-color:#fff;stop-opacity:0" id="stop9956" offset="1"/></linearGradient><linearGradient id="linearGradient9920"><stop id="stop9922" offset="0" style="stop-color:#5b90c8;stop-opacity:1"/><stop style="stop-color:#8fb0d1;stop-opacity:1" id="stop9924" offset=".316"/><stop id="stop9926" offset="1" style="stop-color:#34679d;stop-opacity:1"/></linearGradient><linearGradient id="linearGradient9910"><stop style="stop-color:#729fcf;stop-opacity:1" id="stop9912" offset="0"/><stop id="stop9918" offset=".316" style="stop-color:#a5bfda;stop-opacity:1"/><stop style="stop-color:#376ca4;stop-opacity:1" id="stop9914" offset="1"/></linearGradient><linearGradient id="linearGradient2994"><stop style="stop-color:#000;stop-opacity:1" id="stop2996" offset="0"/><stop style="stop-color:#c9c9c9;stop-opacity:1" id="stop2998" offset="1"/></linearGradient><linearGradient id="linearGradient2974"><stop style="stop-color:#c1c1c1;stop-opacity:1" id="stop2976" offset="0"/><stop style="stop-color:#acacac;stop-opacity:1" id="stop2978" offset="1"/></linearGradient><linearGradient id="linearGradient2966"><stop style="stop-color:#ffd1d1;stop-opacity:1" id="stop2968" offset="0"/><stop id="stop3006" offset=".5" style="stop-color:#ff1d1d;stop-opacity:1"/><stop style="stop-color:#6f0000;stop-opacity:1" id="stop2970" offset="1"/></linearGradient><linearGradient id="linearGradient5068"><stop style="stop-color:#fff;stop-opacity:1" id="stop5070" offset="0"/><stop id="stop5078" offset=".329" style="stop-color:#fff;stop-opacity:.69"/><stop id="stop5076" offset=".658" style="stop-color:#c2c2c2;stop-opacity:.34"/><stop style="stop-color:#fff;stop-opacity:0" id="stop5072" offset="1"/></linearGradient><linearGradient id="linearGradient5058"><stop style="stop-color:#959791;stop-opacity:1" id="stop5060" offset="0"/><stop id="stop5066" offset=".5" style="stop-color:#f8f8f8;stop-opacity:1"/><stop style="stop-color:#8c8c8c;stop-opacity:1" id="stop5062" offset="1"/></linearGradient><linearGradient id="linearGradient5048"><stop style="stop-color:#000;stop-opacity:1" id="stop5050" offset="0"/><stop style="stop-color:#000;stop-opacity:0" id="stop5052" offset="1"/></linearGradient><linearGradient id="linearGradient5036"><stop style="stop-color:#f5f5f5;stop-opacity:.09" id="stop5038" offset="0"/><stop id="stop5044" offset=".263" style="stop-color:#fff;stop-opacity:.89999998"/><stop style="stop-color:#c7c7c7;stop-opacity:.46000001" id="stop5088" offset=".748"/><stop style="stop-color:#fff;stop-opacity:.78039217" id="stop5040" offset="1"/></linearGradient><radialGradient id="radialGradient5054" cx="23.25" cy="37.75" r="14.875" fx="23.25" fy="37.75" gradientTransform="matrix(1,0,0,0.420168,0,21.88866)" gradientUnits="userSpaceOnUse" xlink:href="#linearGradient5048"/><radialGradient id="radialGradient6353" cx="23.25" cy="37.75" r="14.875" fx="23.25" fy="37.75" gradientTransform="matrix(1,0,0,0.420168,0,21.88866)" gradientUnits="userSpaceOnUse" xlink:href="#linearGradient5048"/><linearGradient id="linearGradient9961" x1="55.876" x2="38.061" y1="62.402" y2="62.827" gradientTransform="matrix(0.4908816,0.619715,-0.6703634,0.4537937,57.060266,-24.493009)" gradientUnits="userSpaceOnUse" xlink:href="#linearGradient9952"/><linearGradient id="linearGradient9965" x1="28.245" x2="28.245" y1="60.446" y2="68.225" gradientTransform="matrix(0.4908816,0.619715,-0.6703634,0.4537937,57.060266,-24.493009)" gradientUnits="userSpaceOnUse" xlink:href="#linearGradient9910"/><linearGradient id="linearGradient9968" x1="28.245" x2="28.245" y1="60.446" y2="68.225" gradientTransform="matrix(0.4908816,0.619715,-0.6703634,0.4537937,57.060266,-24.493009)" gradientUnits="userSpaceOnUse" xlink:href="#linearGradient9920"/><linearGradient id="linearGradient9972" x1="28.245" x2="28.245" y1="60.446" y2="68.225" gradientTransform="matrix(0.4908816,0.619715,-0.6703634,0.4537937,57.060266,-24.493009)" gradientUnits="userSpaceOnUse" xlink:href="#linearGradient9910"/></defs><metadata id="metadata4"/><g id="layer1"><rect style="fill:#00f" id="rect2463" width="7.375" height="7.5" x="14.5" y="6" rx=".679" ry=".53"/><rect style="fill:#ff0" id="rect2477" width="5.25" height="5" x="15.625" y="7" rx=".679" ry=".53"/><path style="opacity:.31868131;fill:url(#radialGradient5054);fill-opacity:1;fill-rule:evenodd;stroke:none;stroke-width:1;stroke-linecap:butt;stroke-linejoin:miter;marker:none;marker-start:none;marker-mid:none;marker-end:none;stroke-miterlimit:4;stroke-dasharray:none;stroke-dashoffset:0;stroke-opacity:1;visibility:visible;display:inline;overflow:visible" id="path5046" d="M 37.625,37.75 A 14.375,5.75 0 1 1 8.875,37.75 A 14.375,5.75 0 1 1 37.625,37.75 z" transform="translate(14,5.625)"/><path style="opacity:.6978022;fill:#fff;fill-opacity:1;fill-rule:evenodd;stroke:none;stroke-width:1;stroke-linecap:butt;stroke-linejoin:miter;marker:none;marker-start:none;marker-mid:none;marker-end:none;stroke-miterlimit:4;stroke-dasharray:none;stroke-dashoffset:0;stroke-opacity:1;visibility:visible;display:inline;overflow:visible" id="path5056" d="M 33.5,36.8125 A 8.5625,2.9375 0 1 1 16.375,36.8125 A 8.5625,2.9375 0 1 1 33.5,36.8125 z" transform="translate(14.625,7.5)"/><path id="path6351" d="M 37.625,37.75 A 14.375,5.75 0 1 1 8.875,37.75 A 14.375,5.75 0 1 1 37.625,37.75 z" transform="matrix(0.573913,0,0,0.573913,25.65652,22.33478)" style="opacity:.78571424;fill:url(#radialGradient6353);fill-opacity:1;fill-rule:evenodd;stroke:none;stroke-width:1;stroke-linecap:butt;stroke-linejoin:miter;marker:none;marker-start:none;marker-mid:none;marker-end:none;stroke-miterlimit:4;stroke-dasharray:none;stroke-dashoffset:0;stroke-opacity:1;visibility:visible;display:inline;overflow:visible"/><path style="fill:#e7e7e7;fill-opacity:1;fill-rule:evenodd;stroke:#7d7d7d;stroke-width:.91821557;stroke-linecap:butt;stroke-linejoin:miter;marker:none;marker-start:none;marker-mid:none;marker-end:none;stroke-miterlimit:4;stroke-dashoffset:0;stroke-opacity:1;visibility:visible;display:inline;overflow:visible" id="path9903" d="M 26.812149,20.410908 C 25.986735,20.969661 23.54067,19.099564 21.30056,16.271529 C 19.060449,13.443493 18.513948,10.287511 18.695806,10.164404 C 18.898488,10.027201 21.967286,11.475748 24.207397,14.303783 C 26.447507,17.131819 27.637564,19.852155 26.812149,20.410908 z"/><path style="fill:url(#linearGradient9972);fill-opacity:1;fill-rule:evenodd;stroke:#3465a4;stroke-width:.91821569;stroke-linecap:butt;stroke-linejoin:miter;marker:none;marker-start:none;marker-mid:none;marker-end:none;stroke-miterlimit:4;stroke-dasharray:none;stroke-dashoffset:0;stroke-opacity:1;visibility:visible;display:inline;overflow:visible" id="path9898" d="M 32.195001,22.435575 C 29.270957,18.844968 26.410905,15.744071 24.061428,13.523774 L 20.443728,15.97273 C 22.224049,19.060468 24.970659,23.044221 28.280459,27.222688 C 34.25489,34.765129 40.123441,40.475659 42.393423,41.11061 C 42.463051,41.128959 42.556408,41.153068 42.618966,41.161475 C 42.662916,41.166456 42.727677,41.162611 42.767915,41.162419 C 42.831091,41.160443 42.911721,41.146197 42.965099,41.13071 C 42.978132,41.12641 43.018421,41.125298 43.030828,41.120139 C 43.042918,41.114552 43.067607,41.093939 43.079063,41.087487 C 43.084631,41.084045 43.097772,41.074822 43.10318,41.071161 C 43.108589,41.0675 43.122067,41.058702 43.127298,41.054834 C 43.137412,41.046687 43.166122,41.031151 43.175535,41.022181 C 43.184599,41.012805 43.19791,40.977633 43.206279,40.967446 C 43.238364,40.925079 43.277399,40.85832 43.29851,40.803239 C 43.310856,40.767836 43.334373,40.711922 43.342506,40.671684 C 43.352721,40.614013 43.356045,40.524459 43.358143,40.457555 C 43.388674,38.265301 39.271437,31.369243 33.297004,23.826802 C 32.925262,23.357494 32.56497,22.889882 32.195001,22.435575 z"/><path style="fill:url(#linearGradient9968);fill-opacity:1;fill-rule:evenodd;stroke:#3465a4;stroke-width:.91821569;stroke-linecap:butt;stroke-linejoin:miter;marker:none;marker-start:none;marker-mid:none;marker-end:none;stroke-miterlimit:4;stroke-dasharray:none;stroke-dashoffset:0;stroke-opacity:1;visibility:visible;display:inline;overflow:visible" id="path9893" d="M 36.725988,27.781541 C 35.983661,26.876343 35.216837,26.008041 34.488854,25.191133 L 29.424071,28.61967 C 30.309742,29.883073 31.290916,31.210346 32.347111,32.543741 C 37.388036,38.907676 42.530128,43.595918 44.691516,43.96507 C 44.710494,43.968009 44.756231,43.974331 44.774735,43.976583 C 44.793004,43.978492 44.840168,43.98688 44.857956,43.988096 C 44.901825,43.990272 44.96609,43.991243 45.006905,43.98904 C 45.022983,43.987807 45.057052,43.980414 45.072633,43.97847 C 45.118622,43.971576 45.186798,43.95436 45.228207,43.941004 C 45.241753,43.93619 45.280911,43.935976 45.293935,43.930435 C 45.313081,43.921576 45.34833,43.891965 45.366289,43.881456 C 45.372143,43.877768 45.384687,43.869001 45.390408,43.865129 C 45.396128,43.861257 45.408956,43.852848 45.414525,43.848804 C 45.430786,43.836147 45.471962,43.814022 45.48688,43.799824 C 45.496525,43.790019 45.508569,43.755572 45.517623,43.745088 C 45.543897,43.712626 45.582235,43.657739 45.60323,43.619291 C 45.609937,43.606146 45.627847,43.578352 45.633974,43.564554 C 45.648567,43.529248 45.666967,43.472318 45.677969,43.433 C 45.682085,43.416956 45.687674,43.372856 45.691221,43.356181 C 45.694484,43.339193 45.701774,43.296976 45.704472,43.279362 C 45.976321,41.263063 42.693999,35.315874 37.65307,28.951941 C 37.339413,28.555963 37.039559,28.163911 36.725988,27.781541 z"/><path style="fill:url(#linearGradient9965);fill-opacity:1;fill-rule:evenodd;stroke:#3465a4;stroke-width:.91821569;stroke-linecap:butt;stroke-linejoin:miter;marker:none;marker-start:none;marker-mid:none;marker-end:none;stroke-miterlimit:4;stroke-dasharray:none;stroke-dashoffset:0;stroke-opacity:1;visibility:visible;display:inline;overflow:visible" id="path9888" d="M 44.284699,38.914383 L 40.715233,41.330685 C 42.711291,43.277106 44.494983,44.464424 45.435087,44.389278 C 45.441082,44.388689 45.463958,44.387126 45.469883,44.386431 C 45.475737,44.385631 45.498895,44.384488 45.504677,44.383584 C 45.510389,44.382574 45.533834,44.381854 45.539474,44.380737 C 45.57288,44.373403 45.62653,44.353582 45.6573,44.342391 C 45.662355,44.340418 45.676439,44.328146 45.681418,44.326064 C 45.686322,44.323876 45.711385,44.325517 45.716212,44.323219 C 45.720965,44.32081 45.735655,44.309408 45.740331,44.306891 C 45.744931,44.304265 45.759926,44.293302 45.764448,44.290564 C 45.768896,44.287719 45.7842,44.277195 45.788567,44.274238 C 45.792935,44.271282 45.808407,44.260972 45.812684,44.257912 C 45.816872,44.254752 45.832705,44.244847 45.836803,44.241585 C 45.84081,44.238224 45.857003,44.228721 45.860921,44.225261 C 45.864749,44.221699 45.870623,44.199115 45.874362,44.195454 C 45.878012,44.191695 45.894919,44.182986 45.898481,44.179128 C 45.91931,44.155389 45.955947,44.11409 45.973597,44.086863 C 45.976452,44.082229 45.98427,44.061785 45.987037,44.057057 C 45.989717,44.052233 45.997886,44.032168 46.000479,44.02725 C 46.002984,44.022238 46.011501,44.00255 46.013919,43.997445 C 46.375238,43.19161 45.689324,41.261165 44.284699,38.914383 z"/><path style="opacity:.35714285;fill:none;fill-opacity:1;fill-rule:evenodd;stroke:url(#linearGradient9961);stroke-width:.91821599;stroke-linecap:round;stroke-linejoin:round;marker:none;marker-start:none;marker-mid:none;marker-end:none;stroke-miterlimit:4;stroke-dasharray:none;stroke-dashoffset:0;stroke-opacity:1;visibility:visible;display:inline;overflow:visible" id="path9930" d="M 35.117192,27.480971 C 34.92949,27.249939 34.741836,27.03503 34.555479,26.808851 L 31.048167,29.185803 C 31.559715,29.859445 32.285797,30.961181 32.823402,31.661394 C 39.012851,39.722976 44.954305,43.67428 45.191747,43.514337 C 45.452937,43.338399 42.917117,36.971791 36.626505,29.368199 C 36.257164,28.921768 35.472841,27.918716 35.117192,27.480971 z"/><path style="opacity:.41758242;color:#000;fill:#fff;fill-opacity:1;fill-rule:evenodd;stroke:none;stroke-width:1;stroke-linecap:butt;stroke-linejoin:miter;marker:none;marker-start:none;marker-mid:none;marker-end:none;stroke-miterlimit:4;stroke-dasharray:none;stroke-dashoffset:0;stroke-opacity:1;visibility:visible;display:inline;overflow:visible" id="path6357" d="M 40.349281,2.524195 L 39.465397,9.2417095 L 32.703689,23.64901 L 39.244426,9.1975153 L 38.714096,9.2859036 L 40.349281,2.524195 z"/><rect style="fill:#00f" id="rect2465" width="7.375" height="7.5" x="1.938" y="23.25" rx=".679" ry=".53"/><rect style="fill:#00f" id="rect2467" width="7.375" height="7.5" x="17.313" y="38.25" rx=".679" ry=".53"/><rect style="fill:#00f" id="rect2469" width="12.875" height="1.75" x="26.623" y="15.592" rx=".679" ry=".53" transform="matrix(0.736065,0.6769108,-0.6769108,0.736065,0,0)"/><rect style="fill:#00f" id="rect2471" width="12.875" height="1.75" x="-15.902" y="18.542" rx=".679" ry=".53" transform="matrix(0.5159387,-0.8566255,0.8566255,0.5159387,0,0)"/><rect style="fill:#ff0" id="rect2473" width="5.25" height="5" x="18.375" y="39.5" rx=".679" ry=".53"/><rect style="fill:#ff0" id="rect2475" width="5.25" height="5" x="2.875" y="24.5" rx=".679" ry=".53"/></g></svg>