<svg xmlns="http://www.w3.org/2000/svg" xmlns:svg="http://www.w3.org/2000/svg" xmlns:xlink="http://www.w3.org/1999/xlink" id="svg11300" width="48" height="48" version="1.0"><defs id="defs3"><linearGradient id="linearGradient9952"><stop style="stop-color:#fff;stop-opacity:1" id="stop9954" offset="0"/><stop style="stop-color:#fff;stop-opacity:0" id="stop9956" offset="1"/></linearGradient><linearGradient id="linearGradient9920"><stop id="stop9922" offset="0" style="stop-color:#5b90c8;stop-opacity:1"/><stop style="stop-color:#8fb0d1;stop-opacity:1" id="stop9924" offset=".316"/><stop id="stop9926" offset="1" style="stop-color:#34679d;stop-opacity:1"/></linearGradient><linearGradient id="linearGradient9910"><stop style="stop-color:#729fcf;stop-opacity:1" id="stop9912" offset="0"/><stop id="stop9918" offset=".316" style="stop-color:#a5bfda;stop-opacity:1"/><stop style="stop-color:#376ca4;stop-opacity:1" id="stop9914" offset="1"/></linearGradient><linearGradient id="linearGradient2994"><stop style="stop-color:#000;stop-opacity:1" id="stop2996" offset="0"/><stop style="stop-color:#c9c9c9;stop-opacity:1" id="stop2998" offset="1"/></linearGradient><linearGradient id="linearGradient2974"><stop style="stop-color:#c1c1c1;stop-opacity:1" id="stop2976" offset="0"/><stop style="stop-color:#acacac;stop-opacity:1" id="stop2978" offset="1"/></linearGradient><linearGradient id="linearGradient2966"><stop style="stop-color:#ffd1d1;stop-opacity:1" id="stop2968" offset="0"/><stop id="stop3006" offset=".5" style="stop-color:#ff1d1d;stop-opacity:1"/><stop style="stop-color:#6f0000;stop-opacity:1" id="stop2970" offset="1"/></linearGradient><linearGradient id="linearGradient5068"><stop style="stop-color:#fff;stop-opacity:1" id="stop5070" offset="0"/><stop id="stop5078" offset=".329" style="stop-color:#fff;stop-opacity:.69"/><stop id="stop5076" offset=".658" style="stop-color:#c2c2c2;stop-opacity:.34"/><stop style="stop-color:#fff;stop-opacity:0" id="stop5072" offset="1"/></linearGradient><linearGradient id="linearGradient5058"><stop style="stop-color:#959791;stop-opacity:1" id="stop5060" offset="0"/><stop id="stop5066" offset=".5" style="stop-color:#f8f8f8;stop-opacity:1"/><stop style="stop-color:#8c8c8c;stop-opacity:1" id="stop5062" offset="1"/></linearGradient><linearGradient id="linearGradient5036"><stop style="stop-color:#f5f5f5;stop-opacity:.09" id="stop5038" offset="0"/><stop id="stop5044" offset=".263" style="stop-color:#fff;stop-opacity:.89999998"/><stop style="stop-color:#c7c7c7;stop-opacity:.46000001" id="stop5088" offset=".748"/><stop style="stop-color:#fff;stop-opacity:.78039217" id="stop5040" offset="1"/></linearGradient><linearGradient id="linearGradient9961" x1="55.876" x2="38.061" y1="62.402" y2="62.827" gradientTransform="matrix(0.5728468,-0.4461625,0.3954382,0.7064889,-20.170527,-12.962113)" gradientUnits="userSpaceOnUse" xlink:href="#linearGradient9952"/><linearGradient id="linearGradient9965" x1="28.245" x2="28.245" y1="60.446" y2="68.225" gradientTransform="matrix(0.5728468,-0.4461625,0.3954382,0.7064889,-20.170527,-12.962113)" gradientUnits="userSpaceOnUse" xlink:href="#linearGradient9910"/><linearGradient id="linearGradient9968" x1="28.245" x2="28.245" y1="60.446" y2="68.225" gradientTransform="matrix(0.5728468,-0.4461625,0.3954382,0.7064889,-20.170527,-12.962113)" gradientUnits="userSpaceOnUse" xlink:href="#linearGradient9920"/><linearGradient id="linearGradient9972" x1="28.245" x2="28.245" y1="60.446" y2="68.225" gradientTransform="matrix(0.5728468,-0.4461625,0.3954382,0.7064889,-20.170527,-12.962113)" gradientUnits="userSpaceOnUse" xlink:href="#linearGradient9910"/></defs><metadata id="metadata4"/><g id="layer1"><path style="fill:red" id="path2516" d="M 4.2043904,41.340987 C 4.2843132,40.966822 15.393371,6.915593 15.866622,5.5941841 C 16.074214,5.0145499 16.623681,4.7772412 16.715572,5.2275501 C 16.78309,5.5584179 16.454989,6.5931434 11.119362,22.876239 C 8.001997,32.389713 5.3253503,40.51926 5.1712519,40.941916 C 4.732441,42.145471 3.9648678,42.4623 4.2043885,41.340994 L 4.2043904,41.340987 z"/><rect style="fill:navy" id="rect2510" width="39.672" height=".794" x="21.948" y="-10.859" rx=".583" ry=".192" transform="matrix(0.6923558,0.7215563,-0.2223861,0.9749587,0,0)"/><path style="fill:red" id="path2512" d="M 6.5514286,16.49072 C 6.6045719,16.368977 14.835891,6.8432632 15.192625,6.490676 C 15.349106,6.3360142 15.824288,6.4608387 15.926803,6.6835424 C 16.002126,6.8471756 15.760383,7.1404737 11.803556,11.686159 C 9.491761,14.341997 7.5049638,16.606317 7.3884474,16.717988 C 7.0566534,17.035982 6.3921617,16.855563 6.5514275,16.490722 L 6.5514286,16.49072 z"/><rect style="fill:navy" id="rect2480" width="38.682" height=".966" x="12.854" y="12.919" rx=".569" ry=".233" transform="matrix(0.9084479,0.4179981,-0.23642,0.971651,0,0)"/><path style="fill:#e7e7e7;fill-opacity:1;fill-rule:evenodd;stroke:#7d7d7d;stroke-width:.87621123;stroke-linecap:butt;stroke-linejoin:miter;marker:none;marker-start:none;marker-mid:none;marker-end:none;stroke-miterlimit:4;stroke-dashoffset:0;stroke-opacity:1;visibility:visible;display:inline;overflow:visible" id="path9903" d="M 19.801206,20.74229 C 20.288108,21.612185 18.536926,23.926467 15.922771,25.962504 C 13.308616,27.998542 10.436909,28.310897 10.329632,28.119237 C 10.210073,27.905634 11.593914,24.935059 14.208068,22.899019 C 16.822224,20.862983 19.314308,19.872393 19.801206,20.74229 z"/><path style="fill:url(#linearGradient9972);fill-opacity:1;fill-rule:evenodd;stroke:#3465a4;stroke-width:.87621129;stroke-linecap:butt;stroke-linejoin:miter;marker:none;marker-start:none;marker-mid:none;marker-end:none;stroke-miterlimit:4;stroke-dasharray:none;stroke-dashoffset:0;stroke-opacity:1;visibility:visible;display:inline;overflow:visible" id="path9898" d="M 21.760956,15.493136 C 18.440036,18.158343 15.564232,20.795957 13.498064,22.987154 L 15.632096,26.799809 C 18.47078,25.244486 22.143703,22.78669 26.006157,19.778411 C 32.978174,14.348246 38.288222,8.8873555 38.916395,6.6573933 C 38.934643,6.5889095 38.958662,6.4970479 38.967737,6.4349123 C 38.973275,6.3911916 38.971304,6.325931 38.972069,6.2855456 C 38.971755,6.2220145 38.96073,6.1400555 38.947947,6.0853433 C 38.944356,6.0719473 38.944288,6.0314427 38.939905,6.018609 C 38.935126,6.006062 38.91703,5.979751 38.911453,5.967775 C 38.908463,5.9619319 38.900415,5.9480578 38.897225,5.9423563 C 38.894035,5.936659 38.886379,5.922478 38.882998,5.9169406 C 38.875854,5.9061845 38.862449,5.8762179 38.854543,5.8661036 C 38.846263,5.8563099 38.814711,5.8403243 38.805679,5.8311667 C 38.768048,5.7958097 38.708482,5.7516555 38.659079,5.7263582 C 38.627295,5.7113239 38.577193,5.6835494 38.540932,5.6723813 C 38.488927,5.6578223 38.407878,5.6477929 38.347321,5.6406856 C 36.362106,5.4461613 30.018983,9.0613596 23.046965,14.491524 C 22.613152,14.829402 22.18114,15.155918 21.760956,15.493136 z"/><path style="fill:url(#linearGradient9968);fill-opacity:1;fill-rule:evenodd;stroke:#3465a4;stroke-width:.87621129;stroke-linecap:butt;stroke-linejoin:miter;marker:none;marker-start:none;marker-mid:none;marker-end:none;stroke-miterlimit:4;stroke-dasharray:none;stroke-dashoffset:0;stroke-opacity:1;visibility:visible;display:inline;overflow:visible" id="path9893" d="M 26.709532,11.346944 C 25.872202,12.024037 25.067723,12.728461 24.31071,13.397762 L 27.298352,18.735484 C 28.46352,17.941358 29.688776,17.056192 30.921328,16.096215 C 36.803969,11.514516 41.170987,6.7060405 41.555841,4.5651576 C 41.558947,4.5463376 41.565742,4.5009236 41.568213,4.4825277 C 41.570369,4.4643408 41.579068,4.4176486 41.580586,4.3998951 C 41.583581,4.3560432 41.585959,4.2916408 41.584917,4.2505255 C 41.584176,4.2343034 41.578273,4.1995701 41.576876,4.1837927 C 41.571704,4.1371377 41.5577,4.0674506 41.546567,4.0249087 C 41.542523,4.0109567 41.543242,3.9716552 41.538527,3.9581732 C 41.53095,3.938303 41.504947,3.9007246 41.495846,3.8819206 C 41.492642,3.8757705 41.484993,3.8625302 41.481619,3.856502 C 41.478245,3.850474 41.470927,3.836974 41.467394,3.8310851 C 41.456306,3.8138241 41.437226,3.7708591 41.424712,3.754831 C 41.416055,3.7444206 41.385131,3.7297615 41.375845,3.7198951 C 41.347052,3.6911065 41.298226,3.6485399 41.263886,3.6246014 C 41.252135,3.6168909 41.227375,3.5968431 41.215018,3.5896655 C 41.183377,3.5723841 41.132234,3.5496698 41.096873,3.5356915 C 41.082434,3.5303605 41.042614,3.5214579 41.027594,3.5166516 C 41.012279,3.5121088 40.974206,3.5016389 40.958313,3.4976156 C 39.138126,3.0741353 33.674055,5.9226157 27.791416,10.504319 C 27.425386,10.789403 27.063235,11.060931 26.709532,11.346944 z"/><path style="fill:url(#linearGradient9965);fill-opacity:1;fill-rule:evenodd;stroke:#3465a4;stroke-width:.87621129;stroke-linecap:butt;stroke-linejoin:miter;marker:none;marker-start:none;marker-mid:none;marker-end:none;stroke-miterlimit:4;stroke-dasharray:none;stroke-dashoffset:0;stroke-opacity:1;visibility:visible;display:inline;overflow:visible" id="path9888" d="M 36.971012,4.5957219 L 39.07659,8.3575435 C 40.886408,6.5004499 42.003612,4.7996674 41.95748,3.8508616 C 41.957086,3.8448029 41.956204,3.8217347 41.955712,3.8157384 C 41.955124,3.8098044 41.954631,3.7864866 41.953946,3.7806178 C 41.953164,3.7748115 41.953059,3.7512345 41.952179,3.7454933 C 41.946316,3.7114296 41.929613,3.656121 41.920192,3.624414 C 41.918522,3.619195 41.907734,3.6041482 41.905965,3.5989968 C 41.904098,3.5939119 41.906168,3.5688901 41.904199,3.5638737 C 41.902128,3.558926 41.892142,3.5433353 41.889971,3.5384564 C 41.887699,3.533645 41.878119,3.517781 41.875744,3.5130393 C 41.87327,3.5083653 41.864094,3.4922237 41.861517,3.4876209 C 41.858941,3.4830182 41.849963,3.4667238 41.847291,3.4622038 C 41.844526,3.4577668 41.835922,3.4411409 41.833064,3.4367866 C 41.830112,3.4325141 41.821881,3.4155577 41.81884,3.4113685 C 41.815702,3.4072617 41.79538,3.3996795 41.79215,3.3956545 C 41.788831,3.3917128 41.781335,3.3740988 41.777924,3.3702347 C 41.756906,3.3475637 41.720349,3.3077189 41.696097,3.2879758 C 41.691965,3.2847643 41.673628,3.2753927 41.66941,3.2722635 C 41.665102,3.2692148 41.647115,3.2595172 41.64272,3.2565481 C 41.63824,3.2536614 41.620602,3.2436431 41.616036,3.2408359 C 40.894475,2.8180868 39.129707,3.3619312 36.971012,4.5957219 z"/><path style="opacity:.35714285;fill:none;fill-opacity:1;fill-rule:evenodd;stroke:url(#linearGradient9961);stroke-width:.87621158;stroke-linecap:round;stroke-linejoin:round;marker:none;marker-start:none;marker-mid:none;marker-end:none;stroke-miterlimit:4;stroke-dasharray:none;stroke-dashoffset:0;stroke-opacity:1;visibility:visible;display:inline;overflow:visible" id="path9930" d="M 26.399701,12.938551 C 26.186031,13.109595 25.98697,13.281799 25.777729,13.451858 L 27.849111,17.148382 C 28.47129,16.685516 29.486284,16.039418 30.133142,15.552396 C 37.580459,9.9453201 41.298553,4.2797686 41.159206,4.0295898 C 41.005923,3.7543889 35.179329,5.8225625 28.144539,11.565372 C 27.731502,11.902551 26.804549,12.61446 26.399701,12.938551 z"/><rect style="fill:#00f" id="rect2467" width="3.625" height="3.625" x="6.085" y="39.257" rx=".334" ry=".256" transform="matrix(0.9948808,0.1010554,-0.1010554,0.9948808,0,0)"/><rect style="fill:#ff0" id="rect2473" width="2.581" height="2.417" x="6.607" y="39.861" rx=".334" ry=".256" transform="matrix(0.9948808,0.1010554,-0.1010554,0.9948808,0,0)"/><rect style="fill:navy" id="rect2624" width="38.682" height=".966" x="-9.325" y="42.512" rx=".569" ry=".233" transform="matrix(0.9884933,-0.1512647,0.3376399,0.9412754,0,0)"/><rect style="fill:#00f" id="rect2456" width="3.625" height="3.625" x="46.613" y="29.393" rx=".334" ry=".256" transform="matrix(0.9948808,0.1010554,-0.1010554,0.9948808,0,0)"/><rect style="fill:#ff0" id="rect2458" width="2.581" height="2.417" x="47.135" y="29.997" rx=".334" ry=".256" transform="matrix(0.9948808,0.1010554,-0.1010554,0.9948808,0,0)"/><rect style="fill:#00f" id="rect2460" width="3.625" height="3.625" x="6.926" y="15.428" rx=".334" ry=".256" transform="matrix(0.9948808,0.1010554,-0.1010554,0.9948808,0,0)"/><rect style="fill:#ff0" id="rect2462" width="2.581" height="2.417" x="7.448" y="16.032" rx=".334" ry=".256" transform="matrix(0.9948808,0.1010554,-0.1010554,0.9948808,0,0)"/><path style="fill:red" id="path2474" d="M 3.5100309,39.71821 C 3.4961918,39.516585 5.9562843,20.673675 6.0926232,19.937022 C 6.1524284,19.61389 6.6273367,19.421802 6.8263806,19.640247 C 6.9726297,19.800751 6.9070607,20.372117 5.7080245,29.385689 C 5.0074823,34.651911 4.3964677,39.153697 4.3502141,39.389668 C 4.2185007,40.061621 3.5514992,40.322451 3.510031,39.718214 L 3.5100309,39.71821 z"/><rect style="fill:#00f" id="rect2506" width="3.625" height="3.625" x="14.658" y="2.028" rx=".334" ry=".256" transform="matrix(0.9948808,0.1010554,-0.1010554,0.9948808,0,0)"/><rect style="fill:#ff0" id="rect2508" width="2.581" height="2.417" x="15.18" y="2.632" rx=".334" ry=".256" transform="matrix(0.9948808,0.1010554,-0.1010554,0.9948808,0,0)"/><path style="fill:navy;fill-opacity:1" id="path2514" d="M 7.0144922,16.148054 C 6.9701893,16.07637 9.2545995,13.368569 13.017847,9.0320419 L 14.608837,7.1986872 L 14.999598,7.2486266 C 15.214518,7.2760933 15.407389,7.3155931 15.428199,7.3364042 C 15.465188,7.3733938 13.381794,9.8096154 9.6590893,14.082526 L 7.8029339,16.213018 L 7.4325001,16.219022 C 7.2287614,16.222326 7.0406578,16.190391 7.0144931,16.148055 L 7.0144922,16.148054 z"/><path style="fill:red;fill-opacity:1" id="path2518" d="M 6.7234974,19.195825 C 6.227035,19.140621 5.773487,19.048103 5.7156138,18.99023 C 5.5758171,18.850433 5.7601589,16.934171 5.9238577,16.825503 C 5.9850772,16.784863 6.1544912,16.770487 6.300332,16.793556 C 6.4461727,16.816624 6.892982,16.862322 7.2932416,16.895104 C 8.3354658,16.980466 8.3213166,16.961205 8.1993522,18.128419 C 8.1001795,19.077517 7.993326,19.340188 7.719749,19.307408 C 7.6682734,19.301242 7.2199606,19.251027 6.7234974,19.195824 L 6.7234974,19.195825 z"/></g></svg>