<svg xmlns="http://www.w3.org/2000/svg" xmlns:svg="http://www.w3.org/2000/svg" xmlns:xlink="http://www.w3.org/1999/xlink" id="svg11300" width="48" height="48" version="1.0"><defs id="defs3"><linearGradient id="linearGradient9952"><stop style="stop-color:#fff;stop-opacity:1" id="stop9954" offset="0"/><stop style="stop-color:#fff;stop-opacity:0" id="stop9956" offset="1"/></linearGradient><linearGradient id="linearGradient9920"><stop id="stop9922" offset="0" style="stop-color:#5b90c8;stop-opacity:1"/><stop style="stop-color:#8fb0d1;stop-opacity:1" id="stop9924" offset=".316"/><stop id="stop9926" offset="1" style="stop-color:#34679d;stop-opacity:1"/></linearGradient><linearGradient id="linearGradient9910"><stop style="stop-color:#729fcf;stop-opacity:1" id="stop9912" offset="0"/><stop id="stop9918" offset=".316" style="stop-color:#a5bfda;stop-opacity:1"/><stop style="stop-color:#376ca4;stop-opacity:1" id="stop9914" offset="1"/></linearGradient><linearGradient id="linearGradient2994"><stop style="stop-color:#000;stop-opacity:1" id="stop2996" offset="0"/><stop style="stop-color:#c9c9c9;stop-opacity:1" id="stop2998" offset="1"/></linearGradient><linearGradient id="linearGradient2974"><stop style="stop-color:#c1c1c1;stop-opacity:1" id="stop2976" offset="0"/><stop style="stop-color:#acacac;stop-opacity:1" id="stop2978" offset="1"/></linearGradient><linearGradient id="linearGradient2966"><stop style="stop-color:#ffd1d1;stop-opacity:1" id="stop2968" offset="0"/><stop id="stop3006" offset=".5" style="stop-color:#ff1d1d;stop-opacity:1"/><stop style="stop-color:#6f0000;stop-opacity:1" id="stop2970" offset="1"/></linearGradient><linearGradient id="linearGradient5068"><stop style="stop-color:#fff;stop-opacity:1" id="stop5070" offset="0"/><stop id="stop5078" offset=".329" style="stop-color:#fff;stop-opacity:.69"/><stop id="stop5076" offset=".658" style="stop-color:#c2c2c2;stop-opacity:.34"/><stop style="stop-color:#fff;stop-opacity:0" id="stop5072" offset="1"/></linearGradient><linearGradient id="linearGradient5058"><stop style="stop-color:#959791;stop-opacity:1" id="stop5060" offset="0"/><stop id="stop5066" offset=".5" style="stop-color:#f8f8f8;stop-opacity:1"/><stop style="stop-color:#8c8c8c;stop-opacity:1" id="stop5062" offset="1"/></linearGradient><linearGradient id="linearGradient5048"><stop style="stop-color:#000;stop-opacity:1" id="stop5050" offset="0"/><stop style="stop-color:#000;stop-opacity:0" id="stop5052" offset="1"/></linearGradient><linearGradient id="linearGradient5036"><stop style="stop-color:#f5f5f5;stop-opacity:.09" id="stop5038" offset="0"/><stop id="stop5044" offset=".263" style="stop-color:#fff;stop-opacity:.89999998"/><stop style="stop-color:#c7c7c7;stop-opacity:.46000001" id="stop5088" offset=".748"/><stop style="stop-color:#fff;stop-opacity:.78039217" id="stop5040" offset="1"/></linearGradient><radialGradient id="radialGradient5054" cx="23.25" cy="37.75" r="14.875" fx="23.25" fy="37.75" gradientTransform="matrix(1,0,0,0.420168,0,21.88866)" gradientUnits="userSpaceOnUse" xlink:href="#linearGradient5048"/><linearGradient id="linearGradient9961" x1="55.876" x2="38.061" y1="62.402" y2="62.827" gradientTransform="matrix(-0.7393448,-0.2799653,0.3424688,-0.733506,27.341621,68.087985)" gradientUnits="userSpaceOnUse" xlink:href="#linearGradient9952"/><linearGradient id="linearGradient9965" x1="28.245" x2="28.245" y1="60.446" y2="68.225" gradientTransform="matrix(-0.7393448,-0.2799653,0.3424688,-0.733506,27.341621,68.087985)" gradientUnits="userSpaceOnUse" xlink:href="#linearGradient9910"/><linearGradient id="linearGradient9968" x1="28.245" x2="28.245" y1="60.446" y2="68.225" gradientTransform="matrix(-0.7393448,-0.2799653,0.3424688,-0.733506,27.341621,68.087985)" gradientUnits="userSpaceOnUse" xlink:href="#linearGradient9920"/><linearGradient id="linearGradient9972" x1="28.245" x2="28.245" y1="60.446" y2="68.225" gradientTransform="matrix(-0.7393448,-0.2799653,0.3424688,-0.733506,27.341621,68.087985)" gradientUnits="userSpaceOnUse" xlink:href="#linearGradient9910"/></defs><metadata id="metadata4"/><g id="layer1"><rect style="fill:#ff0" id="rect2630" width="2.581" height="2.417" x="32.291" y="31.739" rx=".334" ry=".256" transform="matrix(0.9342949,-0.3565012,0.3565012,0.9342949,0,0)"/><path style="opacity:.31868131;fill:url(#radialGradient5054);fill-opacity:1;fill-rule:evenodd;stroke:none;stroke-width:1;stroke-linecap:butt;stroke-linejoin:miter;marker:none;marker-start:none;marker-mid:none;marker-end:none;stroke-miterlimit:4;stroke-dasharray:none;stroke-dashoffset:0;stroke-opacity:1;visibility:visible;display:inline;overflow:visible" id="path5046" d="M 37.625,37.75 A 14.375,5.75 0 1 1 8.875,37.75 A 14.375,5.75 0 1 1 37.625,37.75 z" transform="translate(-1.0000001,-7.7500001)"/><path style="opacity:.6978022;fill:#fff;fill-opacity:1;fill-rule:evenodd;stroke:none;stroke-width:1;stroke-linecap:butt;stroke-linejoin:miter;marker:none;marker-start:none;marker-mid:none;marker-end:none;stroke-miterlimit:4;stroke-dasharray:none;stroke-dashoffset:0;stroke-opacity:1;visibility:visible;display:inline;overflow:visible" id="path5056" d="M 33.5,36.8125 A 8.5625,2.9375 0 1 1 16.375,36.8125 A 8.5625,2.9375 0 1 1 33.5,36.8125 z" transform="translate(-9.1250002,-4.5000001)"/><path style="fill:#e7e7e7;fill-opacity:1;fill-rule:evenodd;stroke:#7d7d7d;stroke-width:.91821557;stroke-linecap:butt;stroke-linejoin:miter;marker:none;marker-start:none;marker-mid:none;marker-end:none;stroke-miterlimit:4;stroke-dashoffset:0;stroke-opacity:1;visibility:visible;display:inline;overflow:visible" id="path9903" d="M 30.258214,14.025025 C 30.679894,13.121863 33.739007,13.471604 37.112966,14.749211 C 40.486926,16.026818 42.57561,18.455045 42.482704,18.654034 C 42.37916,18.875806 39.001909,19.207454 35.62795,17.929848 C 32.253991,16.65224 29.836534,14.928186 30.258214,14.025025 z"/><path style="fill:url(#linearGradient9972);fill-opacity:1;fill-rule:evenodd;stroke:#3465a4;stroke-width:.91821569;stroke-linecap:butt;stroke-linejoin:miter;marker:none;marker-start:none;marker-mid:none;marker-end:none;stroke-miterlimit:4;stroke-dasharray:none;stroke-dashoffset:0;stroke-opacity:1;visibility:visible;display:inline;overflow:visible" id="path9898" d="M 24.599215,15.049768 C 28.951524,16.630876 32.997592,17.824521 36.153529,18.524397 L 38.001703,14.565939 C 34.88909,12.829475 30.487308,10.819881 25.502229,8.932197 C 16.503795,5.524789 8.5363644,3.6353196 6.2622488,4.2553049 C 6.1930727,4.2752882 6.1005748,4.3025073 6.0425683,4.327396 C 6.0022907,4.3456761 5.9486822,4.3822112 5.9142449,4.4030257 C 5.8610367,4.437143 5.7991459,4.49075 5.7612803,4.531435 C 5.7523015,4.541814 5.7182932,4.563444 5.7102921,4.57424 C 5.7027832,4.585239 5.692172,4.615601 5.6856503,4.627017 C 5.6826383,4.632829 5.6760924,4.647489 5.6733296,4.653407 C 5.6705668,4.659324 5.6635132,4.673793 5.6610092,4.679797 C 5.6565097,4.691979 5.6398419,4.720048 5.6363662,4.732577 C 5.6333982,4.745275 5.6400236,4.782294 5.6380694,4.795332 C 5.632274,4.84816 5.6330319,4.92549 5.6431807,4.983599 C 5.6507524,5.020321 5.6592634,5.080379 5.6729334,5.119088 C 5.6937625,5.173827 5.7368684,5.252395 5.7694027,5.310893 C 6.8682544,7.208111 13.94099,11.013852 22.939425,14.421261 C 23.499328,14.633277 24.048533,14.849715 24.599215,15.049768 z"/><path style="fill:url(#linearGradient9968);fill-opacity:1;fill-rule:evenodd;stroke:#3465a4;stroke-width:.91821569;stroke-linecap:butt;stroke-linejoin:miter;marker:none;marker-start:none;marker-mid:none;marker-end:none;stroke-miterlimit:4;stroke-dasharray:none;stroke-dashoffset:0;stroke-opacity:1;visibility:visible;display:inline;overflow:visible" id="path9893" d="M 17.96687,12.786761 C 19.068533,13.182707 20.172284,13.534416 21.216325,13.861946 L 23.803774,8.320105 C 22.395254,7.690285 20.871989,7.054659 19.281194,6.452278 C 11.688767,3.5772755 4.8694689,2.1923916 2.824964,2.9847748 C 2.8071674,2.9919914 2.7646683,3.0100371 2.7476314,3.0176008 C 2.7309718,3.0253373 2.6861879,3.0423432 2.6702969,3.0504275 C 2.6315291,3.0710739 2.5758738,3.1032213 2.5419738,3.1260582 C 2.5288072,3.1353667 2.5033605,3.1591962 2.4909858,3.1688608 C 2.4550523,3.1983797 2.4053738,3.2481428 2.3766885,3.2808566 C 2.3675322,3.2919401 2.3340339,3.3122198 2.3256996,3.3236596 C 2.3138139,3.341088 2.2987569,3.3845923 2.2887359,3.4028291 C 2.2856043,3.4089978 2.2793372,3.4229604 2.2764146,3.4292196 C 2.2734926,3.4354775 2.2667976,3.449278 2.2640932,3.455607 C 2.2566329,3.4748157 2.2326468,3.5149359 2.2271298,3.5347774 C 2.2238834,3.5481429 2.2312241,3.5838886 2.2288343,3.5975331 C 2.2229427,3.638878 2.2182065,3.7056604 2.2199185,3.7494343 C 2.2209075,3.7641581 2.2197997,3.7972044 2.2216224,3.8121913 C 2.2272164,3.8499821 2.2406409,3.9082861 2.2513756,3.9476784 C 2.2560767,3.9635611 2.2739126,4.0042789 2.2794248,4.0204108 C 2.2853427,4.0366661 2.3007519,4.0766402 2.3074758,4.0931424 C 3.1089111,5.963186 8.978108,9.383016 16.570537,12.258015 C 17.042955,12.436903 17.50151,12.619506 17.96687,12.786761 z"/><path style="fill:url(#linearGradient9965);fill-opacity:1;fill-rule:evenodd;stroke:#3465a4;stroke-width:.91821569;stroke-linecap:butt;stroke-linejoin:miter;marker:none;marker-start:none;marker-mid:none;marker-end:none;stroke-miterlimit:4;stroke-dasharray:none;stroke-dashoffset:0;stroke-opacity:1;visibility:visible;display:inline;overflow:visible" id="path9888" d="M 5.7661157,7.110858 L 7.5896502,3.2051801 C 4.877595,2.5589911 2.7373763,2.4553328 1.9690767,3.0022862 C 1.9642334,3.0058682 1.9454015,3.0189493 1.9406736,3.0225868 C 1.9360591,3.0262774 1.9167704,3.0391432 1.9122715,3.042887 C 1.9078872,3.0466845 1.8881351,3.0593344 1.8838675,3.063188 C 1.8589595,3.0866257 1.8230857,3.1311706 1.8024196,3.1565667 C 1.7990936,3.1608542 1.793304,3.1786151 1.7900992,3.1829569 C 1.7870133,3.1873518 1.7646598,3.1988055 1.7616964,3.2032553 C 1.7588532,3.207762 1.7520967,3.225087 1.7493755,3.2296468 C 1.7467746,3.2342611 1.7395313,3.2513652 1.7370547,3.256036 C 1.7346973,3.2607609 1.7269632,3.2776476 1.7247331,3.2824256 C 1.722501,3.2872044 1.7145125,3.3039934 1.7124123,3.3088149 C 1.7104399,3.3136765 1.7019335,3.3303035 1.700091,3.3352055 C 1.6983768,3.3401462 1.6893556,3.3566133 1.6877687,3.3615932 C 1.6863111,3.3666148 1.6928593,3.389013 1.6915291,3.3940738 C 1.6903258,3.3991728 1.6802843,3.4153248 1.6792065,3.4204637 C 1.6735127,3.4515276 1.6632625,3.5057752 1.6620874,3.5382017 C 1.6620149,3.5436442 1.6657969,3.5652023 1.6658481,3.57068 C 1.666024,3.5761957 1.6693098,3.5976093 1.6696079,3.6031618 C 1.6700303,3.6087483 1.6728241,3.6300168 1.6733682,3.6356392 C 1.7768102,4.512692 3.3562069,5.81753 5.7661157,7.110858 z"/><path style="opacity:.35714285;fill:none;fill-opacity:1;fill-rule:evenodd;stroke:url(#linearGradient9961);stroke-width:.91821599;stroke-linecap:round;stroke-linejoin:round;marker:none;marker-start:none;marker-mid:none;marker-end:none;stroke-miterlimit:4;stroke-dasharray:none;stroke-dashoffset:0;stroke-opacity:1;visibility:visible;display:inline;overflow:visible" id="path9930" d="M 19.501906,12.219104 C 19.781569,12.321065 20.052917,12.409211 20.328937,12.507697 L 22.119321,8.667688 C 21.334564,8.352045 20.145981,7.779078 19.325224,7.454002 C 9.8758259,3.7113752 2.7486528,3.3692134 2.6269445,3.6283416 C 2.4930636,3.9133862 7.9368022,8.076292 17.237987,11.373922 C 17.784089,11.567538 18.972013,12.025918 19.501906,12.219104 z"/><path style="opacity:.41758242;color:#000;fill:#fff;fill-opacity:1;fill-rule:evenodd;stroke:none;stroke-width:1;stroke-linecap:butt;stroke-linejoin:miter;marker:none;marker-start:none;marker-mid:none;marker-end:none;stroke-miterlimit:4;stroke-dasharray:none;stroke-dashoffset:0;stroke-opacity:1;visibility:visible;display:inline;overflow:visible" id="path6357" d="M 40.349281,2.524195 L 39.465397,9.2417095 L 32.703689,23.64901 L 39.244426,9.1975153 L 38.714096,9.2859036 L 40.349281,2.524195 z"/><rect style="fill:#00f" id="rect2467" width="3.625" height="3.625" x="1.235" y="44.384" rx=".334" ry=".256"/><rect style="fill:#ff0" id="rect2473" width="2.581" height="2.417" x="1.757" y="44.988" rx=".334" ry=".256"/><rect style="fill:#00f" id="rect2616" width="3.625" height="3.625" x="3.812" y="32.688" rx=".334" ry=".256"/><rect style="fill:#ff0" id="rect2618" width="2.581" height="2.417" x="4.335" y="33.292" rx=".334" ry=".256"/><rect style="fill:#00f" id="rect2620" width="3.625" height="3.625" x="33.563" y="43.313" rx=".334" ry=".256"/><rect style="fill:#ff0" id="rect2622" width="2.581" height="2.417" x="34.085" y="43.917" rx=".334" ry=".256"/><rect style="fill:navy" id="rect2624" width="29.168" height=".972" x="2.153" y="46.296" rx=".429" ry=".235" transform="matrix(0.9986091,-5.2724462e-2,5.2724462e-2,0.9986091,0,0)"/><rect style="fill:navy" id="rect2626" width="29.738" height=".809" x="26.276" y="31.541" rx=".437" ry=".196" transform="matrix(0.9523012,0.3051597,-0.559726,0.8286778,0,0)"/><rect style="fill:navy" id="rect2628" width=".946" height="8.682" x="13.155" y="34.089" rx=".459" ry=".24" transform="matrix(0.9760807,0.2174085,-0.2357442,0.9718152,0,0)"/><rect style="fill:#916f6f" id="rect2632" width=".909" height="27.002" x="46.12" y="9.295" rx=".382" ry=".433" transform="matrix(0.973395,0.2291334,-0.2768939,0.9609005,0,0)"/><rect style="fill:#916f6f" id="rect2634" width="1.08" height="39.975" x="34.954" y="-23.231" rx=".453" ry=".64" transform="matrix(0.6033599,0.797469,-0.9317584,0.3630788,0,0)"/><rect style="fill:#fff" id="rect2636" width="1.237" height="4.154" x="37.742" y="4.69" rx=".137" ry=".317"/><rect style="fill:#fff" id="rect2672" width="1.591" height="1.679" x="39.863" y="19.893" rx=".314" ry=".38"/><rect style="fill:#fff" id="rect2674" width="1.591" height="1.679" x="9.546" y="31.869" rx=".314" ry=".38"/><rect style="fill:#fff" id="rect2676" width="1.591" height="1.679" x="15.114" y="29.748" rx=".314" ry=".38"/><rect style="fill:#fff" id="rect2678" width="1.591" height="1.679" x="9.192" y="24.886" rx=".314" ry=".38"/><rect style="fill:#fff" id="rect2680" width="1.591" height="1.679" x="20.241" y="27.626" rx=".314" ry=".38"/><rect style="fill:#fff" id="rect2682" width="1.591" height="1.679" x="25.014" y="25.682" rx=".314" ry=".38"/><rect style="fill:#fff" id="rect2684" width="1.591" height="1.679" x="29.964" y="23.737" rx=".314" ry=".38"/><rect style="fill:#fff" id="rect2686" width="1.591" height="1.679" x="35.179" y="21.793" rx=".314" ry=".38"/><rect style="fill:#fff" id="rect2688" width="1.591" height="1.679" x="35.797" y="40.796" rx=".314" ry=".38"/><rect style="fill:#fff" id="rect2690" width="1.591" height="1.679" x="37.211" y="35.935" rx=".314" ry=".38"/><rect style="fill:#fff" id="rect2692" width="1.591" height="1.679" x="38.361" y="30.985" rx=".314" ry=".38"/><rect style="fill:#fff" id="rect2694" width="1.591" height="1.679" x="39.775" y="26.477" rx=".314" ry=".38"/><rect style="fill:#fff" id="rect2696" width="1.591" height="1.679" x="40.924" y="22.235" rx=".314" ry=".38"/></g></svg>