<svg xmlns="http://www.w3.org/2000/svg" xmlns:svg="http://www.w3.org/2000/svg" id="svg11300" width="48" height="48" version="1.0"><defs id="defs3"><linearGradient id="linearGradient9920"><stop id="stop9922" offset="0" style="stop-color:#5b90c8;stop-opacity:1"/><stop style="stop-color:#8fb0d1;stop-opacity:1" id="stop9924" offset=".316"/><stop id="stop9926" offset="1" style="stop-color:#34679d;stop-opacity:1"/></linearGradient><linearGradient id="linearGradient9910"><stop style="stop-color:#729fcf;stop-opacity:1" id="stop9912" offset="0"/><stop id="stop9918" offset=".316" style="stop-color:#a5bfda;stop-opacity:1"/><stop style="stop-color:#376ca4;stop-opacity:1" id="stop9914" offset="1"/></linearGradient><linearGradient id="linearGradient2994"><stop style="stop-color:#000;stop-opacity:1" id="stop2996" offset="0"/><stop style="stop-color:#c9c9c9;stop-opacity:1" id="stop2998" offset="1"/></linearGradient><linearGradient id="linearGradient2974"><stop style="stop-color:#c1c1c1;stop-opacity:1" id="stop2976" offset="0"/><stop style="stop-color:#acacac;stop-opacity:1" id="stop2978" offset="1"/></linearGradient><linearGradient id="linearGradient2966"><stop style="stop-color:#ffd1d1;stop-opacity:1" id="stop2968" offset="0"/><stop id="stop3006" offset=".5" style="stop-color:#ff1d1d;stop-opacity:1"/><stop style="stop-color:#6f0000;stop-opacity:1" id="stop2970" offset="1"/></linearGradient><linearGradient id="linearGradient5068"><stop style="stop-color:#fff;stop-opacity:1" id="stop5070" offset="0"/><stop id="stop5078" offset=".329" style="stop-color:#fff;stop-opacity:.69"/><stop id="stop5076" offset=".658" style="stop-color:#c2c2c2;stop-opacity:.34"/><stop style="stop-color:#fff;stop-opacity:0" id="stop5072" offset="1"/></linearGradient><linearGradient id="linearGradient5058"><stop style="stop-color:#959791;stop-opacity:1" id="stop5060" offset="0"/><stop id="stop5066" offset=".5" style="stop-color:#f8f8f8;stop-opacity:1"/><stop style="stop-color:#8c8c8c;stop-opacity:1" id="stop5062" offset="1"/></linearGradient><linearGradient id="linearGradient5036"><stop style="stop-color:#f5f5f5;stop-opacity:.09" id="stop5038" offset="0"/><stop id="stop5044" offset=".263" style="stop-color:#fff;stop-opacity:.89999998"/><stop style="stop-color:#c7c7c7;stop-opacity:.46000001" id="stop5088" offset=".748"/><stop style="stop-color:#fff;stop-opacity:.78039217" id="stop5040" offset="1"/></linearGradient></defs><metadata id="metadata4"/><g id="layer1"><path style="fill:navy;fill-opacity:1" id="path2550" d="M 42.547855,9.4324138 C 42.635931,9.4917758 43.5404,17.037651 44.924767,29.262721 L 45.510036,34.431118 L 45.228392,34.872009 C 45.073486,35.1145 44.921845,35.307518 44.89141,35.300935 C 44.837313,35.289233 44.040758,28.462524 42.685675,16.397144 L 42.010022,10.381295 L 42.231652,9.8749865 C 42.353545,9.5965106 42.495837,9.3973535 42.547853,9.432412 L 42.547855,9.4324138 z"/><path style="fill:navy;fill-opacity:1" id="path2548" d="M 16.772476,5.8079562 C 16.853375,5.7391331 24.363865,6.9013876 36.509792,8.8623232 L 41.64473,9.6913492 L 41.993423,10.081376 C 42.185206,10.295893 42.330224,10.493935 42.315683,10.521471 C 42.289838,10.570413 35.500992,9.4980191 23.516739,7.5519118 L 17.54134,6.5815766 L 17.113477,6.2317179 C 16.878146,6.0392958 16.724696,5.8486039 16.772474,5.8079573 L 16.772476,5.8079562 z"/><rect style="fill:navy" id="rect2510" width="39.672" height=".794" x="21.948" y="-10.859" rx=".583" ry=".192" transform="matrix(0.6923558,0.7215563,-0.2223861,0.9749587,0,0)"/><path style="fill:red" id="path2512" d="M 6.5514286,16.49072 C 6.6045719,16.368977 14.835891,6.8432632 15.192625,6.490676 C 15.349106,6.3360142 15.824288,6.4608387 15.926803,6.6835424 C 16.002126,6.8471756 15.760383,7.1404737 11.803556,11.686159 C 9.491761,14.341997 7.5049638,16.606317 7.3884474,16.717988 C 7.0566534,17.035982 6.3921617,16.855563 6.5514275,16.490722 L 6.5514286,16.49072 z"/><rect style="fill:navy" id="rect2480" width="38.682" height=".966" x="12.854" y="12.919" rx=".569" ry=".233" transform="matrix(0.9084479,0.4179981,-0.23642,0.971651,0,0)"/><rect style="fill:#00f" id="rect2467" width="3.625" height="3.625" x="6.085" y="39.257" rx=".334" ry=".256" transform="matrix(0.9948808,0.1010554,-0.1010554,0.9948808,0,0)"/><rect style="fill:#ff0" id="rect2473" width="2.581" height="2.417" x="6.607" y="39.861" rx=".334" ry=".256" transform="matrix(0.9948808,0.1010554,-0.1010554,0.9948808,0,0)"/><rect style="fill:navy" id="rect2624" width="38.682" height=".966" x="-9.325" y="42.512" rx=".569" ry=".233" transform="matrix(0.9884933,-0.1512647,0.3376399,0.9412754,0,0)"/><rect style="fill:#00f" id="rect2456" width="3.625" height="3.625" x="46.613" y="29.393" rx=".334" ry=".256" transform="matrix(0.9948808,0.1010554,-0.1010554,0.9948808,0,0)"/><rect style="fill:#ff0" id="rect2458" width="2.581" height="2.417" x="47.135" y="29.997" rx=".334" ry=".256" transform="matrix(0.9948808,0.1010554,-0.1010554,0.9948808,0,0)"/><rect style="fill:#00f" id="rect2460" width="3.625" height="3.625" x="6.926" y="15.428" rx=".334" ry=".256" transform="matrix(0.9948808,0.1010554,-0.1010554,0.9948808,0,0)"/><rect style="fill:#ff0" id="rect2462" width="2.581" height="2.417" x="7.448" y="16.032" rx=".334" ry=".256" transform="matrix(0.9948808,0.1010554,-0.1010554,0.9948808,0,0)"/><path style="fill:red" id="path2474" d="M 3.5100309,39.71821 C 3.4961918,39.516585 5.9562843,20.673675 6.0926232,19.937022 C 6.1524284,19.61389 6.6273367,19.421802 6.8263806,19.640247 C 6.9726297,19.800751 6.9070607,20.372117 5.7080245,29.385689 C 5.0074823,34.651911 4.3964677,39.153697 4.3502141,39.389668 C 4.2185007,40.061621 3.5514992,40.322451 3.510031,39.718214 L 3.5100309,39.71821 z"/><path style="fill:navy;fill-opacity:1" id="path2514" d="M 7.0144922,16.148054 C 6.9701893,16.07637 9.2545995,13.368569 13.017847,9.0320419 L 14.608837,7.1986872 L 14.999598,7.2486266 C 15.214518,7.2760933 15.407389,7.3155931 15.428199,7.3364042 C 15.465188,7.3733938 13.381794,9.8096154 9.6590893,14.082526 L 7.8029339,16.213018 L 7.4325001,16.219022 C 7.2287614,16.222326 7.0406578,16.190391 7.0144931,16.148055 L 7.0144922,16.148054 z"/><rect style="fill:#00f" id="rect2540" width="3.625" height="3.625" x="15.23" y="2.414" rx=".334" ry=".256" transform="matrix(0.9948808,0.1010554,-0.1010554,0.9948808,0,0)"/><rect style="fill:#ff0" id="rect2542" width="2.581" height="2.417" x="15.753" y="3.018" rx=".334" ry=".256" transform="matrix(0.9948808,0.1010554,-0.1010554,0.9948808,0,0)"/><rect style="fill:#00f" id="rect2544" width="3.625" height="3.625" x="40.976" y="3.975" rx=".334" ry=".256" transform="matrix(0.9948808,0.1010554,-0.1010554,0.9948808,0,0)"/><rect style="fill:#ff0" id="rect2546" width="2.581" height="2.417" x="41.498" y="4.579" rx=".334" ry=".256" transform="matrix(0.9948808,0.1010554,-0.1010554,0.9948808,0,0)"/><path style="fill:navy;fill-opacity:1" id="path2552" d="M 3.5880497,39.851456 C 3.5663371,39.763829 3.7796765,37.882385 4.0621391,35.670467 C 4.7227616,30.497234 6.0677804,20.320887 6.1335909,19.99797 C 6.1964739,19.689422 6.5391767,19.503619 6.7392005,19.669625 C 6.9018324,19.804599 6.9161,19.643998 6.3345966,24.224175 C 5.1955987,33.195423 4.3029965,39.513296 4.1430083,39.736331 C 3.9467137,40.009976 3.6429485,40.072991 3.5880505,39.851454 L 3.5880497,39.851456 z"/><rect style="fill:#ff0" id="rect2554" width="2.581" height="2.417" x="22.579" y="15.118" rx=".334" ry=".256" transform="matrix(0.9948808,0.1010554,-0.1010554,0.9948808,0,0)"/><rect style="fill:#ff0" id="rect2556" width="2.581" height="2.417" x="35.984" y="10.647" rx=".334" ry=".256" transform="matrix(0.9948808,0.1010554,-0.1010554,0.9948808,0,0)"/><rect style="fill:#ff0" id="rect2558" width="2.581" height="2.417" x="18.519" y="28.502" rx=".334" ry=".256" transform="matrix(0.9948808,0.1010554,-0.1010554,0.9948808,0,0)"/><path style="fill:navy;fill-opacity:1" id="path2560" d="M 6.7234974,19.195825 C 6.227035,19.140621 5.773487,19.048103 5.7156138,18.99023 C 5.5758171,18.850433 5.7601589,16.934171 5.9238577,16.825503 C 5.9850772,16.784863 6.1544912,16.770487 6.300332,16.793556 C 6.4461727,16.816624 6.892982,16.862322 7.2932416,16.895104 C 8.3354658,16.980466 8.3213166,16.961205 8.1993522,18.128419 C 8.1001795,19.077517 7.993326,19.340188 7.719749,19.307408 C 7.6682734,19.301242 7.2199606,19.251027 6.7234974,19.195824 L 6.7234974,19.195825 z"/><path style="fill:navy;fill-opacity:1" id="path2562" d="M 16.267435,7.0834977 C 15.769873,7.0278086 15.320551,6.9400204 15.268944,6.888414 C 15.118579,6.7380486 15.350759,4.8341706 15.531242,4.7375798 C 15.678774,4.6586234 17.708194,4.8434275 17.80984,4.9450741 C 17.915702,5.0509368 17.684137,7.0502672 17.556658,7.1310506 C 17.421277,7.216843 17.477296,7.2189086 16.267436,7.0834968 L 16.267435,7.0834977 z"/><path style="fill:navy;fill-opacity:1" id="path2564" d="M 41.72328,11.23775 C 41.225718,11.182061 40.776396,11.094273 40.724789,11.042667 C 40.574424,10.892301 40.806604,8.9884231 40.987087,8.8918323 C 41.13462,8.8128759 43.164039,8.99768 43.265685,9.0993266 C 43.371547,9.2051894 43.139983,11.20452 43.012504,11.285303 C 42.877123,11.371096 42.933141,11.373161 41.723282,11.237749 L 41.72328,11.23775 z"/><path style="fill:navy;fill-opacity:1" id="path2566" d="M 44.533419,37.073923 C 44.171639,37.032004 43.838542,36.960614 43.793205,36.915277 C 43.677627,36.799696 43.810758,35.01141 43.949018,34.822328 C 44.051686,34.681921 44.144877,34.678211 45.112054,34.776019 C 45.690337,34.834498 46.210128,34.930405 46.267144,34.989145 C 46.343991,35.068311 46.348896,35.313166 46.286104,35.935632 C 46.153964,37.245575 46.190418,37.174917 45.653562,37.161601 C 45.399266,37.155296 44.895203,37.115838 44.533421,37.073921 L 44.533419,37.073923 z"/><path style="fill:navy;fill-opacity:1" id="path2568" d="M 3.4719047,42.820213 C 3.082996,42.776778 2.6729191,42.7013 2.5606235,42.65248 C 2.365393,42.567609 2.3591449,42.535669 2.4179947,41.923422 C 2.4518475,41.571262 2.5050926,41.104141 2.536322,40.885379 L 2.5931035,40.487632 L 3.5812871,40.510532 C 4.1247888,40.523126 4.6756056,40.573783 4.8053243,40.623102 L 5.0411754,40.712773 L 4.979985,41.484083 C 4.9463285,41.908308 4.8901409,42.394611 4.8551241,42.564758 C 4.7978617,42.842989 4.7606431,42.875378 4.4852339,42.886648 C 4.3168116,42.893539 3.8608135,42.863643 3.4719047,42.82021 L 3.4719047,42.820213 z"/></g></svg>