<svg xmlns="http://www.w3.org/2000/svg" xmlns:cc="http://web.resource.org/cc/" xmlns:svg="http://www.w3.org/2000/svg" id="svg2590" width="64" height="64"><defs id="defs2592"><marker id="TriangleOutL" orient="auto" refX="0" refY="0" style="overflow:visible"><path id="path3671" d="M 5.77,0.0 L -2.88,5.0 L -2.88,-5.0 L 5.77,0.0 z" transform="scale(0.8)" style="fill-rule:evenodd;stroke:#000;stroke-width:1pt;marker-start:none"/></marker></defs><metadata id="metadata2595"/><g id="layer1"><path style="fill:#ff0;fill-opacity:1;stroke:#000;stroke-width:4;stroke-linecap:round;stroke-linejoin:round;stroke-miterlimit:4;stroke-dasharray:none;stroke-opacity:1" id="path2168" d="M 187.14286,190.93361 L 61.309069,190.72664 L -64.524713,190.51967 L -1.428573,81.647894 L 61.667564,-27.223871 L 124.40521,81.854875 L 187.14286,190.93361 z" transform="matrix(0.1075044,0,0,0.1238534,12.167447,35.121226)"/><path style="fill:#00eb61;fill-opacity:1;stroke:#000;stroke-width:4;stroke-linecap:round;stroke-linejoin:round;stroke-miterlimit:4;stroke-dasharray:none;stroke-opacity:1" id="path2170" d="M 187.14286,190.93361 L 61.309069,190.72664 L -64.524713,190.51967 L -1.428573,81.647894 L 61.667564,-27.223871 L 124.40521,81.854875 L 187.14286,190.93361 z" transform="matrix(0.1058279,0,0,0.1238712,39.54002,35.119781)"/><path style="fill:#ff0;fill-opacity:1;stroke:#000;stroke-width:4;stroke-linecap:round;stroke-linejoin:round;stroke-miterlimit:4;stroke-dasharray:none;stroke-opacity:1" id="path2172" d="M 187.14286,190.93361 L 61.309069,190.72664 L -64.524713,190.51967 L -1.428573,81.647894 L 61.667564,-27.223871 L 124.40521,81.854875 L 187.14286,190.93361 z" transform="matrix(0.1075044,0,0,-0.1238534,12.167447,27.878817)"/><path style="fill:#00eb61;fill-opacity:1;stroke:#000;stroke-width:4;stroke-linecap:round;stroke-linejoin:round;stroke-miterlimit:4;stroke-dasharray:none;stroke-opacity:1" id="path2174" d="M 187.14286,190.93361 L 61.309069,190.72664 L -64.524713,190.51967 L -1.428573,81.647894 L 61.667564,-27.223871 L 124.40521,81.854875 L 187.14286,190.93361 z" transform="matrix(0.1058279,0,0,-0.1238712,39.54002,27.880274)"/><path style="fill:#faa;fill-opacity:1;stroke:#000;stroke-width:4;stroke-linecap:round;stroke-linejoin:round;stroke-miterlimit:4;stroke-dasharray:none;stroke-opacity:1" id="path2176" d="M 187.14286,190.93361 L 61.309069,190.72664 L -64.524713,190.51967 L -1.428573,81.647894 L 61.667564,-27.223871 L 124.40521,81.854875 L 187.14286,190.93361 z" transform="matrix(0,0.2167129,-6.1036478e-2,0,16.88398,18.213557)"/><path style="fill:#f2f2f2;fill-opacity:1;stroke:#000;stroke-width:4;stroke-linecap:round;stroke-linejoin:round;stroke-miterlimit:4;stroke-dasharray:none;stroke-opacity:1" id="path2178" d="M 187.14286,190.93361 L 61.309069,190.72664 L -64.524713,190.51967 L -1.428573,81.647894 L 61.667564,-27.223871 L 124.40521,81.854875 L 187.14286,190.93361 z" transform="matrix(0.1075044,0,0,-0.1238534,25.908654,55.39724)"/><path style="fill:#f2f2f2;fill-opacity:1;stroke:#000;stroke-width:4;stroke-linecap:round;stroke-linejoin:round;stroke-miterlimit:4;stroke-dasharray:none;stroke-opacity:1" id="path2180" d="M 187.14286,190.93361 L 61.309069,190.72664 L -64.524713,190.51967 L -1.428573,81.647894 L 61.667564,-27.223871 L 124.40521,81.854875 L 187.14286,190.93361 z" transform="matrix(0.1075042,-2.0655593e-4,1.7437667e-4,0.1238532,25.894392,7.6154913)"/><path style="fill:#00eb61;fill-opacity:1;stroke:#000;stroke-width:.47379762;stroke-linecap:round;stroke-linejoin:round;stroke-miterlimit:4;stroke-dasharray:none;stroke-opacity:1" id="path2182" d="M 46.460025,31.756077 L 52.865095,44.767812 L 59.750152,58.762401 L 59.762863,31.756077 L 46.460025,31.756077 z"/><path style="fill:#00eb61;fill-opacity:1;stroke:#000;stroke-width:.47379762;stroke-linecap:round;stroke-linejoin:round;stroke-miterlimit:4;stroke-dasharray:none;stroke-opacity:1" id="path2187" d="M 46.460025,31.243977 L 52.865095,18.232242 L 59.750152,4.2376547 L 59.762863,31.243977 L 46.460025,31.243977 z"/><g id="g5724" transform="matrix(0.600282,0,0,0.472884,33.500702,25.015204)"><path id="path2607" d="M -25,14 L -10,14" style="opacity:1;fill:none;fill-rule:evenodd;stroke:red;stroke-width:1px;stroke-linecap:butt;stroke-linejoin:miter;marker-start:none;marker-end:none;stroke-opacity:1"/><path id="path4753" d="M -11.827967,-0.15386996 L -11.832748,8.077042 L -11.837529,16.307954 L -18.963318,12.188358 L -26.089106,8.0687611 L -18.958537,3.9574456 L -11.827967,-0.15386996 z" transform="matrix(-0.560965,0,0,0.6074661,-16.635076,9.0934708)" style="opacity:1;fill:red;fill-opacity:1;stroke:red;stroke-width:0;stroke-linecap:butt;stroke-linejoin:miter;stroke-miterlimit:4;stroke-dasharray:none;stroke-opacity:1"/></g><g id="g5728" transform="matrix(-0.600282,0,0,0.472884,30.97528,25.015204)"><path id="path5730" d="M -25,14 L -10,14" style="opacity:1;fill:none;fill-rule:evenodd;stroke:red;stroke-width:1px;stroke-linecap:butt;stroke-linejoin:miter;marker-start:none;marker-end:none;stroke-opacity:1"/><path id="path5732" d="M -11.827967,-0.15386996 L -11.832748,8.077042 L -11.837529,16.307954 L -18.963318,12.188358 L -26.089106,8.0687611 L -18.958537,3.9574456 L -11.827967,-0.15386996 z" transform="matrix(-0.560965,0,0,0.6074661,-16.635076,9.0934708)" style="opacity:1;fill:red;fill-opacity:1;stroke:red;stroke-width:0;stroke-linecap:butt;stroke-linejoin:miter;stroke-miterlimit:4;stroke-dasharray:none;stroke-opacity:1"/></g></g></svg>