<svg xmlns="http://www.w3.org/2000/svg" xmlns:cc="http://web.resource.org/cc/" xmlns:svg="http://www.w3.org/2000/svg" id="svg5982" width="64" height="64"><defs id="defs5984"><marker id="TriangleOutL" orient="auto" refX="0" refY="0" style="overflow:visible"><path id="path5322" d="M 5.77,0 L -2.88,5 L -2.88,-5 L 5.77,0 z" transform="scale(0.8,0.8)" style="fill-rule:evenodd;stroke:#000;stroke-width:1pt;marker-start:none"/></marker></defs><metadata id="metadata5987"/><g id="layer1"><path style="fill:none;fill-rule:evenodd;stroke:#000;stroke-width:.49086618;stroke-linecap:butt;stroke-linejoin:miter;marker-end:url(#TriangleOutL);stroke-miterlimit:4;stroke-dasharray:none;stroke-opacity:1" id="path7475" d="M 29.550513,31.791102 L 32.821228,31.791102"/><g id="g6017"><path id="path2174" d="M 187.14286,190.93361 L 61.309069,190.72664 L -64.524713,190.51967 L -1.428573,81.647894 L 61.667564,-27.223871 L 124.40521,81.854875 L 187.14286,190.93361 z" transform="matrix(0.102185,0,0,0.1349044,8.6243801,6.0378016)" style="fill:#00eb61;fill-opacity:1;stroke:#000;stroke-width:.9763093;stroke-linecap:round;stroke-linejoin:round;stroke-miterlimit:4;stroke-dasharray:none;stroke-opacity:1"/><path id="path8446" d="M 187.14286,190.93361 L 61.309069,190.72664 L -64.524713,190.51967 L -1.428573,81.647894 L 61.667564,-27.223871 L 124.40521,81.854875 L 187.14286,190.93361 z" transform="matrix(0.102185,0,0,-0.1349044,8.6243801,57.55337)" style="fill:#00eb61;fill-opacity:1;stroke:#000;stroke-width:.9763093;stroke-linecap:round;stroke-linejoin:round;stroke-miterlimit:4;stroke-dasharray:none;stroke-opacity:1"/><path id="path8450" d="M 2.0309254,31.795582 L 2.0309254,2.3651755 L 14.889245,2.3651755 L 2.0309254,31.795582 z" style="fill:#ccc;fill-rule:evenodd;stroke:#000;stroke-width:.11462887px;stroke-linecap:butt;stroke-linejoin:miter;stroke-opacity:1"/><path id="path8452" d="M 14.889245,2.3651755 L 27.747564,2.3651755 L 27.747564,31.795582 L 14.889245,2.3651755 z" style="fill:#ccc;fill-rule:evenodd;stroke:#000;stroke-width:.11462887px;stroke-linecap:butt;stroke-linejoin:miter;stroke-opacity:1"/><path id="path8454" d="M 2.0309254,31.795582 L 2.0309254,61.225997 L 14.889245,61.225997 L 2.0309254,31.795582 z" style="fill:#ccc;fill-rule:evenodd;stroke:#000;stroke-width:.11462887px;stroke-linecap:butt;stroke-linejoin:miter;stroke-opacity:1"/><path id="path8456" d="M 14.889245,61.225997 L 27.747564,61.225997 L 27.747564,31.795582 L 14.889245,61.225997 z" style="fill:#ccc;fill-rule:evenodd;stroke:#000;stroke-width:.11462887px;stroke-linecap:butt;stroke-linejoin:miter;stroke-opacity:1"/></g><g id="g6007" transform="translate(-4.3712056,-7.1996327)"><path id="path9431" d="M 41.218565,39.191036 L 41.218565,9.7606306 L 54.076884,9.7606306 L 41.218565,39.191036 z" style="fill:#ccc;fill-rule:evenodd;stroke:#000;stroke-width:.11462887px;stroke-linecap:butt;stroke-linejoin:miter;stroke-opacity:1"/><path id="path9433" d="M 54.076884,9.7606306 L 66.935204,9.7606306 L 66.935204,39.191036 L 54.076884,9.7606306 z" style="fill:#ccc;fill-rule:evenodd;stroke:#000;stroke-width:.11462887px;stroke-linecap:butt;stroke-linejoin:miter;stroke-opacity:1"/><path id="path9435" d="M 41.218565,39.191036 L 41.218565,68.621442 L 54.076884,68.621442 L 41.218565,39.191036 z" style="fill:#ccc;fill-rule:evenodd;stroke:#000;stroke-width:.11462887px;stroke-linecap:butt;stroke-linejoin:miter;stroke-opacity:1"/><path id="path9437" d="M 54.076884,68.621442 L 66.935204,68.621442 L 66.935204,39.191036 L 54.076884,68.621442 z" style="fill:#ccc;fill-rule:evenodd;stroke:#000;stroke-width:.11462887px;stroke-linecap:butt;stroke-linejoin:miter;stroke-opacity:1"/><path id="path9439" d="M 54.023305,9.8219379 L 54.023305,39.252344 L 41.164986,39.252344 L 54.023305,9.8219379 z" style="fill:#00eb61;fill-opacity:1;fill-rule:evenodd;stroke:#000;stroke-width:.11462887px;stroke-linecap:butt;stroke-linejoin:miter;stroke-opacity:1"/><path id="path9441" d="M 54.023305,39.252344 L 66.881634,39.252344 L 54.023305,9.8219379 L 54.023305,39.252344 z" style="fill:#faa;fill-rule:evenodd;stroke:#000;stroke-width:.11462887px;stroke-linecap:butt;stroke-linejoin:miter;stroke-opacity:1"/><path id="path9443" d="M 54.023305,39.252344 L 54.023305,68.682759 L 66.881634,39.252344 L 54.023305,39.252344 z" style="fill:#faa;fill-rule:evenodd;stroke:#000;stroke-width:.11462887px;stroke-linecap:butt;stroke-linejoin:miter;stroke-opacity:1"/><path id="path9445" d="M 41.218565,39.191036 L 54.076884,39.191036 L 54.076884,68.621442 L 41.218565,39.191036 z" style="fill:#00eb61;fill-opacity:1;fill-rule:evenodd;stroke:#000;stroke-width:.11462887px;stroke-linecap:butt;stroke-linejoin:miter;stroke-opacity:1"/></g><path style="fill:none;fill-rule:evenodd;stroke:#000;stroke-width:.49086618;stroke-linecap:butt;stroke-linejoin:miter;marker-end:url(#TriangleOutL);stroke-miterlimit:4;stroke-dasharray:none;stroke-opacity:1" id="path6025" d="M 29.218014,53.457681 L 32.488729,53.457681"/><path style="fill:none;fill-rule:evenodd;stroke:#000;stroke-width:.49086618;stroke-linecap:butt;stroke-linejoin:miter;marker-end:url(#TriangleOutL);stroke-miterlimit:4;stroke-dasharray:none;stroke-opacity:1" id="path6027" d="M 29.63007,9.7456248 L 32.900785,9.7456248"/></g></svg>